SO_states
version=1
nRows=9
nColumns=49
inDegrees=yes
endheader
time	/jointset/bb/crank_angle/value	/jointset/bb/crank_angle/speed	/jointset/spindle/pedal_angle_r/value	/jointset/spindle/pedal_angle_r/speed	/jointset/ground_pelvis/pelvis_tilt/value	/jointset/ground_pelvis/pelvis_tilt/speed	/jointset/ground_pelvis/pelvis_list/value	/jointset/ground_pelvis/pelvis_list/speed	/jointset/ground_pelvis/pelvis_rotation/value	/jointset/ground_pelvis/pelvis_rotation/speed	/jointset/ground_pelvis/pelvis_tx/value	/jointset/ground_pelvis/pelvis_tx/speed	/jointset/ground_pelvis/pelvis_ty/value	/jointset/ground_pelvis/pelvis_ty/speed	/jointset/ground_pelvis/pelvis_tz/value	/jointset/ground_pelvis/pelvis_tz/speed	/jointset/hip_r/hip_angle_r/value	/jointset/hip_r/hip_angle_r/speed	/jointset/hip_r/hip_adduction_r/value	/jointset/hip_r/hip_adduction_r/speed	/jointset/hip_r/hip_rotation_r/value	/jointset/hip_r/hip_rotation_r/speed	/jointset/knee_r/knee_angle_r/value	/jointset/knee_r/knee_angle_r/speed	/jointset/knee_r/tib_tx_r/value	/jointset/knee_r/tib_tx_r/speed	/jointset/knee_r/tib_ty_r/value	/jointset/knee_r/tib_ty_r/speed	/jointset/tib_pat_r/pat_angle_r/value	/jointset/tib_pat_r/pat_angle_r/speed	/jointset/tib_pat_r/pat_tx_r/value	/jointset/tib_pat_r/pat_tx_r/speed	/jointset/tib_pat_r/pat_ty_r/value	/jointset/tib_pat_r/pat_ty_r/speed	/jointset/ankle_r/ankle_angle_r/value	/jointset/ankle_r/ankle_angle_r/speed	/jointset/subtalar_r/subtalar_angle_r/value	/jointset/subtalar_r/subtalar_angle_r/speed	/jointset/mtp_r/mtp_angle_r/value	/jointset/mtp_r/mtp_angle_r/speed	/forceset/bifemlh_r/activation	/forceset/bifemlh_r/fiber_length	/forceset/bifemsh_r/activation	/forceset/bifemsh_r/fiber_length	/forceset/glut_max2_r/activation	/forceset/glut_max2_r/fiber_length	/forceset/vas_int_r/activation	/forceset/vas_int_r/fiber_length
      0.84542161	   -450.84324106	   -480.13862559	    462.33276470	    558.58686657	     -0.01982467	      0.00000000	      0.04489215	      0.00000000	      0.03411071	      0.00000000	     -0.10000000	      0.00000000	     -0.05000000	      0.00000000	      0.00000000	      0.00000000	     64.69948920	   -205.28605465	      4.31438288	      0.84143529	     -0.34906875	     21.47096955	    -74.41139151	    288.34454111	      0.00508840	      0.00846914	     -0.48059851	      0.09655131	     17.53763832	     -0.69816273	      0.03830645	      0.09557408	     -0.02250428	     -0.00415185	     21.67561753	     -5.51699671	      0.00000000	      0.00000000	      0.00000000	      0.00000000	      0.05000000	      0.10000000	      0.05000000	      0.10000000	      0.05000000	      0.10000000	      0.05000000	      0.10000000
      0.84559329	   -450.92558170	   -480.13862686	    462.42868172	    558.56110512	     -0.01978262	      0.00000000	      0.04494355	      0.00000000	      0.03410489	      0.00000000	     -0.10000000	      0.00000000	     -0.05000000	      0.00000000	      0.00000000	     -0.00000000	     64.66419290	   -205.37757818	      4.31448633	      0.83831268	     -0.34528445	     21.47150069	    -74.36179929	    288.33550657	      0.00508982	      0.00832621	     -0.48058192	      0.09647996	     17.53751552	     -0.70584245	      0.03832287	      0.09551799	     -0.02250501	     -0.00417534	     21.67469347	     -5.44091295	      0.00000000	      0.00000000	      0.00000000	      0.00000000	      0.05000000	      0.10000000	      0.05000000	      0.10000000	      0.05000000	      0.10000000	      0.05000000	      0.10000000
      0.84576318	   -451.00706369	   -480.13861962	    462.52359448	    558.53557445	     -0.01974092	      0.00000000	      0.04499466	      0.00000000	      0.03409907	      0.00000000	     -0.10000000	     -0.00000000	     -0.05000000	     -0.00000000	      0.00000000	     -0.00000000	     64.62924896	   -205.46784963	      4.31458804	      0.83525231	     -0.34153927	     21.47203509	    -74.31272549	    288.32628705	      0.00509121	      0.00827137	     -0.48056550	      0.09648780	     17.53739269	     -0.71343607	      0.03833912	      0.09552288	     -0.02250574	     -0.00426016	     21.67379212	     -5.36549705	      0.00000000	      0.00000000	      0.00000000	      0.00000000	      0.05000000	      0.10000000	      0.05000000	      0.10000000	      0.05000000	      0.10000000	      0.05000000	      0.10000000
      0.84593492	   -451.08943283	   -480.13866125	    462.61953654	    558.50975628	     -0.01969868	      0.00000000	      0.04504658	      0.00000000	      0.03409313	      0.00000000	     -0.10000000	      0.00000000	     -0.05000000	      0.00000000	      0.00000000	      0.00000000	     64.59390874	   -205.55876676	      4.31469020	      0.83213429	     -0.33775298	     21.47254207	    -74.26311871	    288.31658743	      0.00509259	      0.00813213	     -0.48054890	      0.09645119	     17.53726718	     -0.72119145	      0.03835554	      0.09547309	     -0.02250649	     -0.00426407	     21.67289416	     -5.28933971	      0.00000000	      0.00000000	      0.00000000	      0.00000000	      0.05000000	      0.10000000	      0.05000000	      0.10000000	      0.05000000	      0.10000000	      0.05000000	      0.10000000
      0.84610456	   -451.17079464	   -480.13860853	    462.71430125	    558.48433759	     -0.01965687	      0.00000000	      0.04509810	      0.00000000	      0.03408721	      0.00000000	     -0.10000000	     -0.00000000	     -0.05000000	     -0.00000000	      0.00000000	     -0.00000000	     64.55898515	   -205.64818906	      4.31479044	      0.82904423	     -0.33401267	     21.47311395	    -74.21411997	    288.30670080	      0.00509395	      0.00804883	     -0.48053252	      0.09646441	     17.53714186	     -0.72895014	      0.03837175	      0.09538223	     -0.02250723	     -0.00433505	     21.67202022	     -5.21405506	      0.00000000	      0.00000000	      0.00000000	      0.00000000	      0.05000000	      0.10000000	      0.05000000	      0.10000000	      0.05000000	      0.10000000	      0.05000000	      0.10000000
      0.84627643	   -451.25322584	   -480.13861522	    462.81030744	    558.45844989	     -0.01961443	      0.00000000	      0.04515055	      0.00000000	      0.03408115	      0.00000000	     -0.10000000	      0.00000000	     -0.05000000	      0.00000000	      0.00000000	      0.00000000	     64.52358683	   -205.73854204	      4.31489133	      0.82591193	     -0.33022285	     21.47362718	    -74.16447865	    288.29635067	      0.00509530	      0.00798483	     -0.48051592	      0.09642178	     17.53701353	     -0.73680172	      0.03838816	      0.09538546	     -0.02250799	     -0.00439984	     21.67114802	     -5.13773586	      0.00000000	      0.00000000	      0.00000000	      0.00000000	      0.05000000	      0.10000000	      0.05000000	      0.10000000	      0.05000000	      0.10000000	      0.05000000	      0.10000000
      0.84644586	   -451.33448665	   -480.13863519	    462.90494647	    558.43305343	     -0.01957249	      0.00000000	      0.04520250	      0.00000000	      0.03407512	      0.00000000	     -0.10000000	      0.00000000	     -0.05000000	      0.00000000	      0.00000000	      0.00000000	     64.48867566	   -205.82732945	      4.31499013	      0.82280749	     -0.32648650	     21.47416342	    -74.11554364	    288.28579911	      0.00509662	      0.00783660	     -0.48049956	      0.09639490	     17.53688566	     -0.74468531	      0.03840433	      0.09531391	     -0.02250875	     -0.00443527	     21.67030123	     -5.06259080	      0.00000000	      0.00000000	      0.00000000	      0.00000000	      0.05000000	      0.10000000	      0.05000000	      0.10000000	      0.05000000	      0.10000000	      0.05000000	      0.10000000
      0.84661792	   -451.41700870	   -480.13861900	    463.00105031	    558.40717224	     -0.01952982	      0.00000000	      0.04525550	      0.00000000	      0.03406893	      0.00000000	     -0.10000000	     -0.00000000	     -0.05000000	     -0.00000000	      0.00000000	     -0.00000000	     64.45320703	   -205.91699749	      4.31508979	      0.81977024	     -0.32269183	     21.47465447	    -74.06585068	    288.27474157	      0.00509794	      0.00775330	     -0.48048295	      0.09639737	     17.53675441	     -0.75279450	      0.03842075	      0.09526534	     -0.02250952	     -0.00440143	     21.66945454	     -4.98620260	      0.00000000	      0.00000000	      0.00000000	      0.00000000	      0.05000000	      0.10000000	      0.05000000	      0.10000000	      0.05000000	      0.10000000	      0.05000000	      0.10000000
      0.84678720	   -451.49819728	   -480.13866017	    463.09559719	    558.38177235	     -0.01948775	      0.00000000	      0.04530790	      0.00000000	      0.03406278	      0.00000000	     -0.10000000	     -0.00000000	     -0.05000000	     -0.00000000	      0.00000000	     -0.00000000	     64.41829623	   -206.00500628	      4.31518719	      0.81664638	     -0.31895814	     21.47517999	    -74.01696229	    288.26349784	      0.00509923	      0.00772276	     -0.48046661	      0.09633205	     17.53662391	     -0.76068020	      0.03843689	      0.09525007	     -0.02251029	     -0.00448580	     21.66863454	     -4.91102777	      0.00000000	      0.00000000	      0.00000000	      0.00000000	      0.05000000	      0.10000000	      0.05000000	      0.10000000	      0.05000000	      0.10000000	      0.05000000	      0.10000000
